<svg width="364" height="416" viewBox="0 0 364 416" fill="none" xmlns="http://www.w3.org/2000/svg">
<path d="M338 26H25.9187C11.6187 26 0 37.7813 0 52.2438V363.756C0 378.219 11.6187 390 25.9187 390H338C352.3 390 364 378.219 364 363.756V52.2438C364 37.7813 352.3 26 338 26Z" fill="black"/>
<path d="M79.5738 219.296C79.5738 240.226 96.9618 253.428 116.282 253.428C124.332 253.428 132.06 251.174 138.5 247.632C146.55 243.124 159.752 241.192 167.802 249.242C176.818 258.258 175.53 274.68 164.904 282.086C151.38 291.746 134.314 296.898 116.282 296.898C73.1338 296.898 33.8498 266.63 33.8498 219.296V218.33C33.8498 170.996 73.1338 140.728 116.282 140.728C134.314 140.728 151.38 145.88 164.904 155.54C175.53 162.946 176.818 179.368 167.802 188.384C159.752 196.434 146.55 194.502 138.5 189.994C132.06 186.452 124.332 184.198 116.282 184.198C96.9618 184.198 79.5738 197.4 79.5738 218.33V219.296ZM334.583 169.708L288.859 276.612C284.351 288.526 276.301 295.61 264.065 295.61H262.133C250.219 295.61 241.203 288.526 236.373 276.612L190.971 169.708C187.107 159.404 193.225 145.88 204.173 142.982C218.341 139.44 228.323 145.88 232.187 155.862L262.777 237.006L293.367 155.862C296.909 145.88 307.213 139.44 321.381 142.982C332.329 145.88 338.447 159.404 334.583 169.708Z" fill="white"/>
</svg>
